<svg xmlns="http://www.w3.org/2000/svg" viewBox="0 0 1850 700" width="1850" height="700" id="diagram-svg"><style>
                @import url('https://fonts.googleapis.com/css2?family=Inter:wght@500;700;800&amp;family=JetBrains+Mono:wght@700&amp;family=Material+Symbols+Rounded:opsz,wght,FILL,GRAD@24,400,1,0');
                text { font-family: 'Inter', sans-serif; }
                .material-symbols-rounded { font-family: 'Material Symbols Rounded'; }
            </style><rect width="100%" height="100%" fill="#020617"/><defs>
                <filter id="card-shadow" x="-50%" y="-50%" width="200%" height="200%">
                    <feDropShadow dx="0" dy="4" stdDeviation="6" flood-color="#000" flood-opacity="0.6"/>
                </filter>
                <marker id="arrow-head" markerWidth="10" markerHeight="10" refX="9" refY="3" orient="auto">
                    <path d="M0,0 L0,6 L9,3 z" fill="#94a3b8"/>
                </marker>
                <linearGradient id="header-grad" x1="0" y1="0" x2="0" y2="1">
                    <stop offset="0%" stop-color="white" stop-opacity="0.05"/>
                    <stop offset="100%" stop-color="white" stop-opacity="0"/>
                </linearGradient>
            </defs><g><rect x="50" y="80" width="400" height="520" rx="16" fill="#1e293b" fill-opacity="0.4" stroke="#3b82f6" stroke-width="2" stroke-opacity="0.3"/><path d="M 50 96 Q 50 80 66 80 L 434 80 Q 450 80 450 96 L 450 140 L 50 140 Z" fill="#172554" stroke="none"/><line x1="50" y1="140" x2="450" y2="140" stroke="#3b82f6" stroke-width="1" stroke-opacity="0.5"/><text x="74" y="116" fill="#60a5fa" font-family="Inter, sans-serif" font-weight="800" font-size="18" letter-spacing="0.02em">01. Camada Cliente</text><text x="74" y="133" fill="#94a3b8" font-family="Inter, sans-serif" font-weight="500" font-size="12">Frontend &amp; Wallet</text></g><g><rect x="490" y="80" width="400" height="520" rx="16" fill="#1e293b" fill-opacity="0.4" stroke="#a855f7" stroke-width="2" stroke-opacity="0.3"/><path d="M 490 96 Q 490 80 506 80 L 874 80 Q 890 80 890 96 L 890 140 L 490 140 Z" fill="#2e1065" stroke="none"/><line x1="490" y1="140" x2="890" y2="140" stroke="#a855f7" stroke-width="1" stroke-opacity="0.5"/><text x="514" y="116" fill="#c084fc" font-family="Inter, sans-serif" font-weight="800" font-size="18" letter-spacing="0.02em">02. Backend APIs</text><text x="514" y="133" fill="#94a3b8" font-family="Inter, sans-serif" font-weight="500" font-size="12">Regras de Negócio</text></g><g><rect x="930" y="80" width="400" height="520" rx="16" fill="#1e293b" fill-opacity="0.4" stroke="#06b6d4" stroke-width="2" stroke-opacity="0.3"/><path d="M 930 96 Q 930 80 946 80 L 1314 80 Q 1330 80 1330 96 L 1330 140 L 930 140 Z" fill="#083344" stroke="none"/><line x1="930" y1="140" x2="1330" y2="140" stroke="#06b6d4" stroke-width="1" stroke-opacity="0.5"/><text x="954" y="116" fill="#22d3ee" font-family="Inter, sans-serif" font-weight="800" font-size="18" letter-spacing="0.02em">03. Indexação &amp; Dados</text><text x="954" y="133" fill="#94a3b8" font-family="Inter, sans-serif" font-weight="500" font-size="12">Persistência &amp; Cache</text></g><g><rect x="1370" y="80" width="400" height="520" rx="16" fill="#1e293b" fill-opacity="0.4" stroke="#14F195" stroke-width="2" stroke-opacity="0.3"/><path d="M 1370 96 Q 1370 80 1386 80 L 1754 80 Q 1770 80 1770 96 L 1770 140 L 1370 140 Z" fill="#022c22" stroke="none"/><line x1="1370" y1="140" x2="1770" y2="140" stroke="#14F195" stroke-width="1" stroke-opacity="0.5"/><text x="1394" y="116" fill="#4ade80" font-family="Inter, sans-serif" font-weight="800" font-size="18" letter-spacing="0.02em">04. Blockchain</text><text x="1394" y="133" fill="#94a3b8" font-family="Inter, sans-serif" font-weight="500" font-size="12">Solana Network</text></g><path d="M 390 235 C 450 235, 490 235, 550 235" stroke="#94a3b8" stroke-width="2" fill="none" marker-end="url(#arrow-head)" style="opacity: 0.6;"/><rect x="438" y="225" width="64" height="20" rx="4" fill="#0f172a"/><text x="470" y="239" text-anchor="middle" fill="#64748b" font-size="10" font-family="Inter">HTTP/REST</text><path d="M 390 235 C 450 235, 490 455, 550 455" stroke="#94a3b8" stroke-width="2" fill="none" marker-end="url(#arrow-head)" style="opacity: 0.6;"/><rect x="438" y="335" width="64" height="20" rx="4" fill="#0f172a"/><text x="470" y="349" text-anchor="middle" fill="#64748b" font-size="10" font-family="Inter">HTTP/REST</text><path d="M 390 235 C 450 235, 50 455, 110 455" stroke="#94a3b8" stroke-width="2" fill="none" marker-end="url(#arrow-head)" style="opacity: 0.6;"/><rect x="230" y="335" width="40" height="20" rx="4" fill="#0f172a"/><text x="250" y="349" text-anchor="middle" fill="#64748b" font-size="10" font-family="Inter">Local</text><path d="M 390 455 C 450 455, 1370 345, 1430 345" stroke="#94a3b8" stroke-width="2" fill="none" marker-end="url(#arrow-head)" style="opacity: 0.6;"/><rect x="881" y="390" width="58" height="20" rx="4" fill="#0f172a"/><text x="910" y="404" text-anchor="middle" fill="#64748b" font-size="10" font-family="Inter">JSON-RPC</text><path d="M 830 235 C 890 235, 930 455, 990 455" stroke="#94a3b8" stroke-width="2" fill="none" marker-end="url(#arrow-head)" style="opacity: 0.6;"/><rect x="878" y="335" width="64" height="20" rx="4" fill="#0f172a"/><text x="910" y="349" text-anchor="middle" fill="#64748b" font-size="10" font-family="Inter">SQL Query</text><path d="M 830 455 C 890 455, 1370 345, 1430 345" stroke="#94a3b8" stroke-width="2" fill="none" marker-end="url(#arrow-head)" style="opacity: 0.6;"/><rect x="1107" y="390" width="46" height="20" rx="4" fill="#0f172a"/><text x="1130" y="404" text-anchor="middle" fill="#64748b" font-size="10" font-family="Inter">Verify</text><path d="M 1270 235 C 1330 235, 1370 345, 1430 345" stroke="#94a3b8" stroke-width="2" fill="none" marker-end="url(#arrow-head)" style="opacity: 0.6;"/><rect x="1303" y="280" width="94" height="20" rx="4" fill="#0f172a"/><text x="1350" y="294" text-anchor="middle" fill="#64748b" font-size="10" font-family="Inter">Subscribe Logs</text><path d="M 1270 235 C 1330 235, 930 455, 990 455" stroke="#94a3b8" stroke-width="2" fill="none" marker-end="url(#arrow-head)" style="opacity: 0.6;"/><rect x="1092" y="335" width="76" height="20" rx="4" fill="#0f172a"/><text x="1130" y="349" text-anchor="middle" fill="#64748b" font-size="10" font-family="Inter">Insert Data</text><path d="M 1710 345 C 1770 345, 1370 505, 1430 505" stroke="#94a3b8" stroke-width="2" fill="none" marker-end="url(#arrow-head)" style="opacity: 0.6;"/><rect x="1544" y="415" width="52" height="20" rx="4" fill="#0f172a"/><text x="1570" y="429" text-anchor="middle" fill="#64748b" font-size="10" font-family="Inter">Execute</text><g transform="translate(110, 180)"><g><rect x="210" y="12" width="58" height="24" rx="6" fill="#1e293b" stroke="#334155"/><text x="239" y="28" text-anchor="middle" font-family="JetBrains Mono, monospace" font-size="11" font-weight="bold" fill="#cbd5e1">:5174</text></g><rect width="280" height="110" rx="12" fill="#0f172a" stroke="#334155" stroke-width="1" filter="url(#card-shadow)"/><path d="M 0 12 Q 0 0 12 0 L 12 0 L 12 110 L 0 110 Q 0 110 0 98 Z" fill="#3b82f6"/><text x="28" y="40" font-family="'Material Symbols Rounded'" font-size="28" fill="#60a5fa">laptop_chromebook</text><text x="28" y="70" font-family="Inter, sans-serif" font-weight="700" font-size="15" fill="#f1f5f9">Frontend React</text><text x="28" y="90" font-family="Inter, sans-serif" font-size="12" fill="#64748b">Aplicação Web</text></g><g transform="translate(110, 400)"><rect width="280" height="110" rx="12" fill="#0f172a" stroke="#334155" stroke-width="1" filter="url(#card-shadow)"/><path d="M 0 12 Q 0 0 12 0 L 12 0 L 12 110 L 0 110 Q 0 110 0 98 Z" fill="#3b82f6"/><text x="28" y="40" font-family="'Material Symbols Rounded'" font-size="28" fill="#60a5fa">account_balance_wallet</text><text x="28" y="70" font-family="Inter, sans-serif" font-weight="700" font-size="15" fill="#f1f5f9">Wallet Adapter</text><text x="28" y="90" font-family="Inter, sans-serif" font-size="12" fill="#64748b">Assinatura TX</text></g><g transform="translate(550, 180)"><g><rect x="210" y="12" width="58" height="24" rx="6" fill="#1e293b" stroke="#334155"/><text x="239" y="28" text-anchor="middle" font-family="JetBrains Mono, monospace" font-size="11" font-weight="bold" fill="#cbd5e1">:3004</text></g><rect width="280" height="110" rx="12" fill="#0f172a" stroke="#334155" stroke-width="1" filter="url(#card-shadow)"/><path d="M 0 12 Q 0 0 12 0 L 12 0 L 12 110 L 0 110 Q 0 110 0 98 Z" fill="#a855f7"/><text x="28" y="40" font-family="'Material Symbols Rounded'" font-size="28" fill="#c084fc">dns</text><text x="28" y="70" font-family="Inter, sans-serif" font-weight="700" font-size="15" fill="#f1f5f9">API Principal</text><text x="28" y="90" font-family="Inter, sans-serif" font-size="12" fill="#64748b">Core Business Logic</text></g><g transform="translate(550, 400)"><g><rect x="210" y="12" width="58" height="24" rx="6" fill="#1e293b" stroke="#334155"/><text x="239" y="28" text-anchor="middle" font-family="JetBrains Mono, monospace" font-size="11" font-weight="bold" fill="#cbd5e1">:3005</text></g><rect width="280" height="110" rx="12" fill="#0f172a" stroke="#334155" stroke-width="1" filter="url(#card-shadow)"/><path d="M 0 12 Q 0 0 12 0 L 12 0 L 12 110 L 0 110 Q 0 110 0 98 Z" fill="#a855f7"/><text x="28" y="40" font-family="'Material Symbols Rounded'" font-size="28" fill="#c084fc">verified_user</text><text x="28" y="70" font-family="Inter, sans-serif" font-weight="700" font-size="15" fill="#f1f5f9">KYC Service</text><text x="28" y="90" font-family="Inter, sans-serif" font-size="12" fill="#64748b">Validação Identidade</text></g><g transform="translate(990, 180)"><g><rect x="210" y="12" width="58" height="24" rx="6" fill="#1e293b" stroke="#334155"/><text x="239" y="28" text-anchor="middle" font-family="JetBrains Mono, monospace" font-size="11" font-weight="bold" fill="#cbd5e1">:9090</text></g><rect width="280" height="110" rx="12" fill="#0f172a" stroke="#334155" stroke-width="1" filter="url(#card-shadow)"/><path d="M 0 12 Q 0 0 12 0 L 12 0 L 12 110 L 0 110 Q 0 110 0 98 Z" fill="#06b6d4"/><text x="28" y="40" font-family="'Material Symbols Rounded'" font-size="28" fill="#22d3ee">manage_search</text><text x="28" y="70" font-family="Inter, sans-serif" font-weight="700" font-size="15" fill="#f1f5f9">Indexador</text><text x="28" y="90" font-family="Inter, sans-serif" font-size="12" fill="#64748b">Listener de Eventos</text></g><g transform="translate(990, 400)"><g><rect x="210" y="12" width="58" height="24" rx="6" fill="#1e293b" stroke="#334155"/><text x="239" y="28" text-anchor="middle" font-family="JetBrains Mono, monospace" font-size="11" font-weight="bold" fill="#cbd5e1">:5436</text></g><rect width="280" height="110" rx="12" fill="#0f172a" stroke="#334155" stroke-width="1" filter="url(#card-shadow)"/><path d="M 0 12 Q 0 0 12 0 L 12 0 L 12 110 L 0 110 Q 0 110 0 98 Z" fill="#06b6d4"/><text x="28" y="40" font-family="'Material Symbols Rounded'" font-size="28" fill="#22d3ee">database</text><text x="28" y="70" font-family="Inter, sans-serif" font-weight="700" font-size="15" fill="#f1f5f9">PostgreSQL</text><text x="28" y="90" font-family="Inter, sans-serif" font-size="12" fill="#64748b">Base Relacional</text></g><g transform="translate(1430, 290)"><g><rect x="210" y="12" width="58" height="24" rx="6" fill="#1e293b" stroke="#334155"/><text x="239" y="28" text-anchor="middle" font-family="JetBrains Mono, monospace" font-size="11" font-weight="bold" fill="#cbd5e1">:443</text></g><rect width="280" height="110" rx="12" fill="#0f172a" stroke="#334155" stroke-width="1" filter="url(#card-shadow)"/><path d="M 0 12 Q 0 0 12 0 L 12 0 L 12 110 L 0 110 Q 0 110 0 98 Z" fill="#14F195"/><text x="28" y="40" font-family="'Material Symbols Rounded'" font-size="28" fill="#4ade80">hub</text><text x="28" y="70" font-family="Inter, sans-serif" font-weight="700" font-size="15" fill="#f1f5f9">Solana RPC</text><text x="28" y="90" font-family="Inter, sans-serif" font-size="12" fill="#64748b">Gateway Mainnet</text></g><g transform="translate(1430, 450)"><rect width="280" height="110" rx="12" fill="#0f172a" stroke="#334155" stroke-width="1" filter="url(#card-shadow)"/><path d="M 0 12 Q 0 0 12 0 L 12 0 L 12 110 L 0 110 Q 0 110 0 98 Z" fill="#14F195"/><text x="28" y="40" font-family="'Material Symbols Rounded'" font-size="28" fill="#4ade80">code_blocks</text><text x="28" y="70" font-family="Inter, sans-serif" font-weight="700" font-size="15" fill="#f1f5f9">Smart Contracts</text><text x="28" y="90" font-family="Inter, sans-serif" font-size="12" fill="#64748b">Kota &amp; Credential</text></g></svg>