<svg xmlns="http://www.w3.org/2000/svg" viewBox="0 0 1600 600" width="1600" height="600" id="main-svg"><style>
                @import url('https://fonts.googleapis.com/css2?family=Inter:wght@400;600&amp;family=JetBrains+Mono:wght@700&amp;display=swap');
                @import url('https://fonts.googleapis.com/css2?family=Material+Symbols+Outlined:opsz,wght,FILL,GRAD@24,400,0,0');
                text { font-family: 'Inter', sans-serif; }
            </style><defs>
                <marker id="arrow" markerWidth="10" markerHeight="10" refX="9" refY="3" orient="auto">
                    <path d="M0,0 L0,6 L9,3 z" fill="#64748b"/>
                </marker>
                <marker id="arrow-active" markerWidth="10" markerHeight="10" refX="9" refY="3" orient="auto">
                    <path d="M0,0 L0,6 L9,3 z" fill="#14F195"/>
                </marker>
                <filter id="shadow" x="-20%" y="-20%" width="140%" height="140%">
                    <feDropShadow dx="0" dy="4" stdDeviation="6" flood-color="#000" flood-opacity="0.5"/>
                </filter>
            </defs><g><rect x="50" y="60" width="500" height="480" fill="#1e3a8a" fill-opacity="0.05" stroke="#1e3a8a" stroke-opacity="0.3" stroke-dasharray="8 4" rx="16"/><text x="70" y="90" fill="#94a3b8" font-family="JetBrains Mono" font-size="12" font-weight="bold">1. ATIVO &amp; ESTRUTURAÇÃO (OFF-CHAIN)</text><rect x="580" y="60" width="450" height="480" fill="#581c87" fill-opacity="0.05" stroke="#581c87" stroke-opacity="0.3" stroke-dasharray="8 4" rx="16"/><text x="600" y="90" fill="#94a3b8" font-family="JetBrains Mono" font-size="12" font-weight="bold">2. INFRAESTRUTURA BLOCKCHAIN</text><rect x="1060" y="60" width="490" height="480" fill="#064e3b" fill-opacity="0.05" stroke="#064e3b" stroke-opacity="0.3" stroke-dasharray="8 4" rx="16"/><text x="1080" y="90" fill="#94a3b8" font-family="JetBrains Mono" font-size="12" font-weight="bold">3. DISTRIBUIÇÃO &amp; MERCADO</text></g><g><path d="M 300 300 L 320 300 L 320 200 L 340 200" fill="none" stroke="#475569" stroke-width="2" marker-end="url(#arrow)" style="transition: stroke 0.3s;"/><path d="M 300 300 L 320 300 L 320 400 L 340 400" fill="none" stroke="#475569" stroke-width="2" marker-end="url(#arrow)" style="transition: stroke 0.3s;"/><path d="M 560 200 L 595 200 L 595 300 L 630 300" fill="none" stroke="#475569" stroke-width="2" marker-end="url(#arrow)" style="transition: stroke 0.3s;"/><path d="M 560 400 L 595 400 L 595 300 L 630 300" fill="none" stroke="#475569" stroke-width="2" marker-end="url(#arrow)" style="transition: stroke 0.3s;"/><path d="M 850 300 L 890 300" fill="none" stroke="#475569" stroke-width="2" marker-end="url(#arrow)" style="transition: stroke 0.3s;"/><path d="M 1110 300 L 1130 300 L 1130 200 L 1150 200" fill="none" stroke="#475569" stroke-width="2" marker-end="url(#arrow)" style="transition: stroke 0.3s;"/><path d="M 1110 300 L 1130 300 L 1130 400 L 1150 400" fill="none" stroke="#475569" stroke-width="2" marker-end="url(#arrow)" style="transition: stroke 0.3s;"/><path d="M 1370 200 L 1390 200 L 1390 300 L 1410 300" fill="none" stroke="#475569" stroke-width="2" marker-end="url(#arrow)" style="transition: stroke 0.3s;"/><path d="M 1370 400 L 1390 400 L 1390 300 L 1410 300" fill="none" stroke="#475569" stroke-width="2" marker-end="url(#arrow)" style="transition: stroke 0.3s;"/></g><g><g class="node-group" transform="translate(80, 250)" style="cursor: pointer;"><rect class="node-rect" width="220" height="100" rx="8" fill="#0f172a" stroke="#334155" stroke-width="1" filter="url(#shadow)"/><rect x="0" y="0" width="4" height="100" fill="#3b82f6"/><rect x="20" y="20" width="40" height="40" rx="8" fill="#1e293b"/><text x="40" y="48" text-anchor="middle" font-family="'Material Symbols Outlined'" font-size="24" fill="#3b82f6">home_work</text><text x="75" y="35" fill="#f1f5f9" font-family="Inter" font-weight="600" font-size="14">Propriedade Física</text><text x="75" y="52" fill="#94a3b8" font-family="Inter" font-size="11">Seleção do Ativo</text><text x="205" y="85" text-anchor="end" fill="#334155" font-family="JetBrains Mono" font-weight="bold" font-size="24" opacity="0.3">01</text></g><g class="node-group" transform="translate(340, 150)" style="cursor: pointer;"><rect class="node-rect" width="220" height="100" rx="8" fill="#0f172a" stroke="#334155" stroke-width="1" filter="url(#shadow)"/><rect x="0" y="0" width="4" height="100" fill="#3b82f6"/><rect x="20" y="20" width="40" height="40" rx="8" fill="#1e293b"/><text x="40" y="48" text-anchor="middle" font-family="'Material Symbols Outlined'" font-size="24" fill="#3b82f6">verified</text><text x="75" y="35" fill="#f1f5f9" font-family="Inter" font-weight="600" font-size="14">Due Diligence</text><text x="75" y="52" fill="#94a3b8" font-family="Inter" font-size="11">Avaliação &amp; Legal</text><text x="205" y="85" text-anchor="end" fill="#334155" font-family="JetBrains Mono" font-weight="bold" font-size="24" opacity="0.3">02</text></g><g class="node-group" transform="translate(340, 350)" style="cursor: pointer;"><rect class="node-rect" width="220" height="100" rx="8" fill="#0f172a" stroke="#334155" stroke-width="1" filter="url(#shadow)"/><rect x="0" y="0" width="4" height="100" fill="#3b82f6"/><rect x="20" y="20" width="40" height="40" rx="8" fill="#1e293b"/><text x="40" y="48" text-anchor="middle" font-family="'Material Symbols Outlined'" font-size="24" fill="#3b82f6">gavel</text><text x="75" y="35" fill="#f1f5f9" font-family="Inter" font-weight="600" font-size="14">SPV / Legal</text><text x="75" y="52" fill="#94a3b8" font-family="Inter" font-size="11">Contrato Jurídico</text><text x="205" y="85" text-anchor="end" fill="#334155" font-family="JetBrains Mono" font-weight="bold" font-size="24" opacity="0.3">03</text></g><g class="node-group" transform="translate(630, 250)" style="cursor: pointer;"><rect class="node-rect" width="220" height="100" rx="8" fill="#0f172a" stroke="#334155" stroke-width="1" filter="url(#shadow)"/><rect x="0" y="0" width="4" height="100" fill="#9945FF"/><rect x="20" y="20" width="40" height="40" rx="8" fill="#1e293b"/><text x="40" y="48" text-anchor="middle" font-family="'Material Symbols Outlined'" font-size="24" fill="#9945FF">token</text><text x="75" y="35" fill="#f1f5f9" font-family="Inter" font-weight="600" font-size="14">Mint Token</text><text x="75" y="52" fill="#94a3b8" font-family="Inter" font-size="11">SPL-2022</text><text x="205" y="85" text-anchor="end" fill="#334155" font-family="JetBrains Mono" font-weight="bold" font-size="24" opacity="0.3">04</text></g><g class="node-group" transform="translate(890, 250)" style="cursor: pointer;"><rect class="node-rect" width="220" height="100" rx="8" fill="#0f172a" stroke="#334155" stroke-width="1" filter="url(#shadow)"/><rect x="0" y="0" width="4" height="100" fill="#9945FF"/><rect x="20" y="20" width="40" height="40" rx="8" fill="#1e293b"/><text x="40" y="48" text-anchor="middle" font-family="'Material Symbols Outlined'" font-size="24" fill="#9945FF">shield_lock</text><text x="75" y="35" fill="#f1f5f9" font-family="Inter" font-weight="600" font-size="14">Compliance</text><text x="75" y="52" fill="#94a3b8" font-family="Inter" font-size="11">Transfer Hooks</text><text x="205" y="85" text-anchor="end" fill="#334155" font-family="JetBrains Mono" font-weight="bold" font-size="24" opacity="0.3">05</text></g><g class="node-group" transform="translate(1150, 150)" style="cursor: pointer;"><rect class="node-rect" width="220" height="100" rx="8" fill="#0f172a" stroke="#334155" stroke-width="1" filter="url(#shadow)"/><rect x="0" y="0" width="4" height="100" fill="#14F195"/><rect x="20" y="20" width="40" height="40" rx="8" fill="#1e293b"/><text x="40" y="48" text-anchor="middle" font-family="'Material Symbols Outlined'" font-size="24" fill="#14F195">storefront</text><text x="75" y="35" fill="#f1f5f9" font-family="Inter" font-weight="600" font-size="14">Listagem</text><text x="75" y="52" fill="#94a3b8" font-family="Inter" font-size="11">Marketplace</text><text x="205" y="85" text-anchor="end" fill="#334155" font-family="JetBrains Mono" font-weight="bold" font-size="24" opacity="0.3">06</text></g><g class="node-group" transform="translate(1150, 350)" style="cursor: pointer;"><rect class="node-rect" width="220" height="100" rx="8" fill="#0f172a" stroke="#334155" stroke-width="1" filter="url(#shadow)"/><rect x="0" y="0" width="4" height="100" fill="#14F195"/><rect x="20" y="20" width="40" height="40" rx="8" fill="#1e293b"/><text x="40" y="48" text-anchor="middle" font-family="'Material Symbols Outlined'" font-size="24" fill="#14F195">groups</text><text x="75" y="35" fill="#f1f5f9" font-family="Inter" font-weight="600" font-size="14">Venda Tokens</text><text x="75" y="52" fill="#94a3b8" font-family="Inter" font-size="11">Investidores</text><text x="205" y="85" text-anchor="end" fill="#334155" font-family="JetBrains Mono" font-weight="bold" font-size="24" opacity="0.3">07</text></g><g class="node-group" transform="translate(1410, 250)" style="cursor: pointer;"><rect class="node-rect" width="220" height="100" rx="8" fill="#0f172a" stroke="#334155" stroke-width="1" filter="url(#shadow)"/><rect x="0" y="0" width="4" height="100" fill="#14F195"/><rect x="20" y="20" width="40" height="40" rx="8" fill="#1e293b"/><text x="40" y="48" text-anchor="middle" font-family="'Material Symbols Outlined'" font-size="24" fill="#14F195">payments</text><text x="75" y="35" fill="#f1f5f9" font-family="Inter" font-weight="600" font-size="14">Dividendos</text><text x="75" y="52" fill="#94a3b8" font-family="Inter" font-size="11">Yield (USDC)</text><text x="205" y="85" text-anchor="end" fill="#334155" font-family="JetBrains Mono" font-weight="bold" font-size="24" opacity="0.3">08</text></g></g></svg>